<?xml version="1.0" encoding="UTF-8"?>
<svg version="1.1" xmlns="http://www.w3.org/2000/svg" width="106" height="115">
<path d="M0 0 C34.98 0 69.96 0 106 0 C106 37.95 106 75.9 106 115 C71.02 115 36.04 115 0 115 C0 77.05 0 39.1 0 0 Z " fill="#0D0E0E" transform="translate(0,0)"/>
<path d="M0 0 C2.00293347 3.00440021 2.49271626 4.70993945 3.125 8.1875 C3.29257812 9.08855469 3.46015625 9.98960938 3.6328125 10.91796875 C3.75398438 11.60503906 3.87515625 12.29210938 4 13 C4.7425 12.236875 5.485 11.47375 6.25 10.6875 C8.4263323 8.5606298 10.52167796 6.7440044 13 5 C13.66 5.33 14.32 5.66 15 6 C14.54625 6.94875 14.0925 7.8975 13.625 8.875 C11.71387712 13.3464789 10.31145765 18.13236182 10 23 C10.66 23.66 11.32 24.32 12 25 C11.484375 25.4125 10.96875 25.825 10.4375 26.25 C9.963125 26.8275 9.48875 27.405 9 28 C9.31726291 29.33724834 9.65411886 30.6698665 10 32 C9.99181225 34.82067916 9.87216744 37.62389984 9.7421875 40.44140625 C10.05109316 43.50706086 10.75649458 44.01979106 13 46 C13.94921875 47.9375 13.94921875 47.9375 14.6875 50 C14.93886719 50.680625 15.19023438 51.36125 15.44921875 52.0625 C16 54 16 54 16 57 C17.5159375 57.185625 17.5159375 57.185625 19.0625 57.375 C23 58 23 58 30 60 C30 52.08 30 44.16 30 36 C29.34 36 28.68 36 28 36 C28 34.35 28 32.7 28 31 C30.31 31 32.62 31 35 31 C35 32.65 35 34.3 35 36 C34.34 36 33.68 36 33 36 C33.05329468 37.04450317 33.05329468 37.04450317 33.10766602 38.11010742 C34.00615114 56.51330276 33.89326226 74.60001283 33 93 C34.32 93.33 35.64 93.66 37 94 C37.33 95.32 37.66 96.64 38 98 C32.06 98 26.12 98 20 98 C20 96.35 20 94.7 20 93 C19.34 93 18.68 93 18 93 C18 94.65 18 96.3 18 98 C9.09 98 0.18 98 -9 98 C-9.04125 94.019375 -9.0825 90.03875 -9.125 85.9375 C-9.14320801 84.69605225 -9.16141602 83.45460449 -9.18017578 82.17553711 C-9.20946851 76.32502292 -8.86177179 71.53460563 -7 66 C-6.7280897 63.54739404 -6.7280897 63.54739404 -6.8125 61.3125 C-6.81894531 60.58675781 -6.82539062 59.86101562 -6.83203125 59.11328125 C-7.00172477 56.97829998 -7.41929016 55.05803566 -8 53 C-9.65 53 -11.3 53 -13 53 C-12.73337971 47.24100179 -11.75628457 42.91571115 -8.9921875 37.8515625 C-7.62964992 35.30887427 -6.71401797 32.79116115 -6 30 C-6.9977758 27.00667261 -7.7522025 26.05233685 -10 24 C-9.01 23.67 -8.02 23.34 -7 23 C-7.9877064 16.57409836 -9.13609892 10.85797948 -12 5 C-8.11980141 6.25844278 -6.0588158 7.42416203 -4 11 C-4 11.99 -4 12.98 -4 14 C-3.34 13.67 -2.68 13.34 -2 13 C-1.30662208 9.9600352 -1.30662208 9.9600352 -0.875 6.4375 C-0.70742188 5.23996094 -0.53984375 4.04242188 -0.3671875 2.80859375 C-0.24601562 1.88175781 -0.12484375 0.95492188 0 0 Z " fill="#D0C8C8" transform="translate(44,10)"/>
<path d="M0 0 C2.00293347 3.00440021 2.49271626 4.70993945 3.125 8.1875 C3.29257812 9.08855469 3.46015625 9.98960938 3.6328125 10.91796875 C3.75398438 11.60503906 3.87515625 12.29210938 4 13 C4.7425 12.236875 5.485 11.47375 6.25 10.6875 C8.4263323 8.5606298 10.52167796 6.7440044 13 5 C13.66 5.33 14.32 5.66 15 6 C14.54625 6.94875 14.0925 7.8975 13.625 8.875 C11.71387712 13.3464789 10.31145765 18.13236182 10 23 C10.66 23.66 11.32 24.32 12 25 C11.27683594 25.556875 11.27683594 25.556875 10.5390625 26.125 C8.40975165 28.71908428 8.52953997 30.6814575 8.375 34 C8.20498657 37.30311813 8.04908571 39.85274287 7 43 C5.35 43 3.7 43 2 43 C2 41.68 2 40.36 2 39 C3.32 39 4.64 39 6 39 C5.81535634 34.65815798 5.81535634 34.65815798 4 31 C2.00041636 30.95919217 -0.00045254 30.95745644 -2 31 C-2.2475 32.010625 -2.495 33.02125 -2.75 34.0625 C-3.53862451 36.86523747 -4.574117 39.18701656 -6.0625 41.6875 C-7.59482931 44.30728883 -8.53058562 46.06616013 -9 49 C-8.01 49 -7.02 49 -6 49 C-5.525625 50.134375 -5.05125 51.26875 -4.5625 52.4375 C-3.36377917 55.75740166 -3.36377917 55.75740166 -2 57 C-2.06488751 58.56614842 -2.2026663 60.12951016 -2.375 61.6875 C-2.47425781 62.58597656 -2.57351562 63.48445313 -2.67578125 64.41015625 C-3.03627424 67.28975691 -3.47424276 70.1458893 -4 73 C-4.66 71.68 -5.32 70.36 -6 69 C-6.33 70.65 -6.66 72.3 -7 74 C-7.66 73.67 -8.32 73.34 -9 73 C-8.67 72.030625 -8.34 71.06125 -8 70.0625 C-6.37746179 64.4008773 -6.40292588 58.66003068 -8 53 C-9.65 53 -11.3 53 -13 53 C-12.73337971 47.24100179 -11.75628457 42.91571115 -8.9921875 37.8515625 C-7.62964992 35.30887427 -6.71401797 32.79116115 -6 30 C-6.9977758 27.00667261 -7.7522025 26.05233685 -10 24 C-9.01 23.67 -8.02 23.34 -7 23 C-7.9877064 16.57409836 -9.13609892 10.85797948 -12 5 C-8.11980141 6.25844278 -6.0588158 7.42416203 -4 11 C-4 11.99 -4 12.98 -4 14 C-3.34 13.67 -2.68 13.34 -2 13 C-1.30662208 9.9600352 -1.30662208 9.9600352 -0.875 6.4375 C-0.70742188 5.23996094 -0.53984375 4.04242188 -0.3671875 2.80859375 C-0.24601562 1.88175781 -0.12484375 0.95492188 0 0 Z " fill="#D3CBCB" transform="translate(44,10)"/>
<path d="M0 0 C2.875 -0.125 2.875 -0.125 6 0 C8 2 8 2 8.125 5.625 C8.08375 6.73875 8.0425 7.8525 8 9 C6.68 9 5.36 9 4 9 C4 10.32 4 11.64 4 13 C4.556875 13.061875 5.11375 13.12375 5.6875 13.1875 C9.17853631 14.41408033 10.70512652 16.10121245 13 19 C13.96794936 21.9634142 14.55017245 24.91834557 15 28 C12.02873292 25.28922757 11.11756266 22.86848614 10 19 C9.01 19.33 8.02 19.66 7 20 C6.67 25.61 6.34 31.22 6 37 C7.69125 37.268125 9.3825 37.53625 11.125 37.8125 C15.52269297 38.62751646 19.26445376 39.4138526 23 42 C25.0670477 45.99677405 25.34027962 49.67113612 25.5625 54.125 C25.80782181 59.15118139 25.80782181 59.15118139 27 64 C27.99 64.495 27.99 64.495 29 65 C27.68 65 26.36 65 25 65 C24.52493753 62.86221886 24.05033017 60.72435235 23.578125 58.5859375 C23.20157489 56.90163905 22.8165741 55.21920055 22.421875 53.5390625 C22.24140625 52.76304688 22.0609375 51.98703125 21.875 51.1875 C21.70742188 50.47980469 21.53984375 49.77210937 21.3671875 49.04296875 C21 47 21 47 21 43 C13.41 43 5.82 43 -2 43 C-1.3125 35.25 -1.3125 35.25 -1.0715332 32.82910156 C-0.74148525 28.54332161 -0.74148525 28.54332161 -2.48046875 24.734375 C-2.98191406 24.16203125 -3.48335937 23.5896875 -4 23 C-4 21.68 -4 20.36 -4 19 C-4.99 19 -5.98 19 -7 19 C-6.57224832 13.54616608 -5.42438875 11.15077424 -2 7 C-1.12014735 4.68127231 -0.5700807 2.42284296 0 0 Z " fill="#121313" transform="translate(42,40)"/>
<path d="M0 0 C6.93 0 13.86 0 21 0 C21 5.94 21 11.88 21 18 C14.07 18 7.14 18 0 18 C0 12.06 0 6.12 0 0 Z " fill="#101111" transform="translate(38,87)"/>
<path d="M0 0 C0.33 0 0.66 0 1 0 C1.33 1.65 1.66 3.3 2 5 C9.26 5.33 16.52 5.66 24 6 C23.67 6.66 23.34 7.32 23 8 C15.41 8 7.82 8 0 8 C0 14.27 0 20.54 0 27 C7.26 27 14.52 27 22 27 C22 24.36 22 21.72 22 19 C22.33 19 22.66 19 23 19 C23 22.63 23 26.26 23 30 C14.42 30 5.84 30 -3 30 C-3 22.08 -3 14.16 -3 6 C-2.34 6 -1.68 6 -1 6 C-1.0309375 4.7934375 -1.0309375 4.7934375 -1.0625 3.5625 C-1 1 -1 1 0 0 Z " fill="#E3DBDB" transform="translate(38,78)"/>
<path d="M0 0 C2 1 2 1 3.25 3.4375 C5.59798732 6.87562429 6.92347429 7.14178406 11 8 C14.96 8.33 18.92 8.66 23 9 C23 17.91 23 26.82 23 36 C21.68 35.34 20.36 34.68 19 34 C18.4609375 30.91796875 18.4609375 30.91796875 18.375 27.1875 C18.24940832 22.60340366 17.93522677 19.16874038 16 15 C15.67 14.01 15.34 13.02 15 12 C13.09639193 11.26343968 13.09639193 11.26343968 10.8125 10.9375 C7.07885164 10.22774895 3.58554114 9.28711733 0 8 C0 5.36 0 2.72 0 0 Z " fill="#272727" transform="translate(51,66)"/>
<path d="M0 0 C7.59 0 15.18 0 23 0 C24.78232739 7.36178703 26.36051919 14.45412647 27 22 C26.34 22 25.68 22 25 22 C24.67 22.99 24.34 23.98 24 25 C24 23.35 24 21.7 24 20 C23.34 20 22.68 20 22 20 C22 21.65 22 23.3 22 25 C20.07463062 23.39441516 19.08925833 22.52230522 18.65942383 20.00708008 C18.67513428 19.26868896 18.69084473 18.53029785 18.70703125 17.76953125 C18.71827026 16.68442261 18.71827026 16.68442261 18.72973633 15.57739258 C18.75704834 14.66497803 18.78436035 13.75256348 18.8125 12.8125 C18.874375 9.904375 18.93625 6.99625 19 4 C12.07 4 5.14 4 -2 4 C-2 3.67 -2 3.34 -2 3 C-1.30849854 2.97494385 -0.61699707 2.9498877 0.09545898 2.92407227 C3.20967866 2.80847839 6.32356789 2.68558758 9.4375 2.5625 C11.07041992 2.50352539 11.07041992 2.50352539 12.73632812 2.44335938 C13.77080078 2.40146484 14.80527344 2.35957031 15.87109375 2.31640625 C16.82943115 2.27974854 17.78776855 2.24309082 18.77514648 2.20532227 C20.97138925 2.24165576 20.97138925 2.24165576 22 1 C14.74 1 7.48 1 0 1 C0 0.67 0 0.34 0 0 Z " fill="#B1AAAA" transform="translate(40,83)"/>
<path d="M0 0 C0.66 0.33 1.32 0.66 2 1 C1.54625 1.94875 1.0925 2.8975 0.625 3.875 C-1.28612288 8.3464789 -2.68854235 13.13236182 -3 18 C-2.34 18.66 -1.68 19.32 -1 20 C-1.66 20.33 -2.32 20.66 -3 21 C-5 20 -5 20 -6 17 C-6.33 17.33 -6.66 17.66 -7 18 C-8.51928038 18.07179964 -10.04167482 18.08392007 -11.5625 18.0625 C-12.38878906 18.05347656 -13.21507812 18.04445313 -14.06640625 18.03515625 C-15.02353516 18.01775391 -15.02353516 18.01775391 -16 18 C-16.33 16.35 -16.66 14.7 -17 13 C-14.28817788 10.39665076 -13.10866187 10.00543309 -9.25 9.8125 C-8.1775 9.874375 -7.105 9.93625 -6 10 C-6.12375 9.278125 -6.2475 8.55625 -6.375 7.8125 C-5.93998169 4.54986264 -5.44438849 4.1958004 -3 2.1875 C-2.01 1.465625 -1.02 0.74375 0 0 Z " fill="#D4CCCC" transform="translate(57,15)"/>
<path d="M0 0 C2.24973447 -0.054138 4.49984383 -0.09285491 6.75 -0.125 C8.00296875 -0.14820312 9.2559375 -0.17140625 10.546875 -0.1953125 C14.79280954 0.04484217 16.86340449 0.7371161 19.6875 3.875 C22.83987347 8.97884276 22.37937346 15.05280835 22.71875 20.8828125 C22.80020382 23.90459982 22.80020382 23.90459982 24 26 C23.34 26 22.68 26 22 26 C21.67 26.66 21.34 27.32 21 28 C18.60110284 24.40165426 18.68096097 22.40472697 18.5 18.125 C18.38728968 11.73311989 18.38728968 11.73311989 16 6 C13.3963996 4.66380108 10.6967379 3.93070385 7.875 3.1875 C7.12089844 2.97158203 6.36679687 2.75566406 5.58984375 2.53320312 C3.73164097 2.00396816 1.86640227 1.49954958 0 1 C0 0.67 0 0.34 0 0 Z " fill="#CFC7C7" transform="translate(48,76)"/>
<path d="M0 0 C0.33 0 0.66 0 1 0 C1.00410889 0.77190674 1.00821777 1.54381348 1.01245117 2.33911133 C1.0453119 5.83102421 1.11594893 9.32117474 1.1875 12.8125 C1.19330078 14.02744141 1.19910156 15.24238281 1.20507812 16.49414062 C1.23408203 17.65751953 1.26308594 18.82089844 1.29296875 20.01953125 C1.31653442 21.62985229 1.31653442 21.62985229 1.34057617 23.27270508 C1.72975447 26.23610731 1.72975447 26.23610731 4.54418945 27.6862793 C5.35460693 28.11980713 6.16502441 28.55333496 7 29 C7 29.99 7 30.98 7 32 C1.39 32 -4.22 32 -10 32 C-10 31.01 -10 30.02 -10 29 C-8.35 28.67 -6.7 28.34 -5 28 C-5 27.34 -5 26.68 -5 26 C-3.35 26 -1.7 26 0 26 C0 17.42 0 8.84 0 0 Z " fill="#E6DDDD" transform="translate(75,76)"/>
<path d="M0 0 C0.33 0.66 0.66 1.32 1 2 C1.99 1.34 2.98 0.68 4 0 C4.99 0 5.98 0 7 0 C7.474375 1.134375 7.94875 2.26875 8.4375 3.4375 C9.63622083 6.75740166 9.63622083 6.75740166 11 8 C10.93511249 9.56614842 10.7973337 11.12951016 10.625 12.6875 C10.52574219 13.58597656 10.42648438 14.48445313 10.32421875 15.41015625 C9.96372576 18.28975691 9.52575724 21.1458893 9 24 C8.34 22.68 7.68 21.36 7 20 C6.67 21.65 6.34 23.3 6 25 C5.34 24.67 4.68 24.34 4 24 C4.33 23.030625 4.66 22.06125 5 21.0625 C6.62253821 15.4008773 6.59707412 9.66003068 5 4 C3.35 4 1.7 4 0 4 C0 2.68 0 1.36 0 0 Z " fill="#BCB5B5" transform="translate(31,59)"/>
<path d="M0 0 C2.31 0 4.62 0 7 0 C7 1.65 7 3.3 7 5 C6.34 5 5.68 5 5 5 C5 12.92 5 20.84 5 29 C4.01 29 3.02 29 2 29 C2 21.08 2 13.16 2 5 C1.34 5 0.68 5 0 5 C0 3.35 0 1.7 0 0 Z " fill="#C1BABA" transform="translate(72,41)"/>
<path d="M0 0 C0.99 0 1.98 0 3 0 C4.42944945 2.35438733 5.08661261 3.48032433 4.625 6.25 C4.41875 6.8275 4.2125 7.405 4 8 C3.67 8 3.34 8 3 8 C2.67 10.31 2.34 12.62 2 15 C4.31 15.66 6.62 16.32 9 17 C9 17.33 9 17.66 9 18 C5.7 17.67 2.4 17.34 -1 17 C-1.02684679 14.35409986 -1.04676357 11.70846904 -1.0625 9.0625 C-1.07087891 8.30775391 -1.07925781 7.55300781 -1.08789062 6.77539062 C-1.09652441 4.85005687 -1.05224333 2.92464419 -1 1 C-0.67 0.67 -0.34 0.34 0 0 Z " fill="#DBD2D2" transform="translate(49,59)"/>
<path d="M0 0 C1.9375 0.8125 1.9375 0.8125 4.9375 2.8125 C4.6075 4.4625 4.2775 6.1125 3.9375 7.8125 C0.9675 7.8125 -2.0025 7.8125 -5.0625 7.8125 C-5.3925 6.1625 -5.7225 4.5125 -6.0625 2.8125 C-2.64335809 -0.24030528 -2.64335809 -0.24030528 0 0 Z " fill="#202020" transform="translate(46.0625,25.1875)"/>
<path d="M0 0 C0.66 0.33 1.32 0.66 2 1 C1.59639145 4.32977053 0.69728895 6.63924902 -1.0625 9.4375 C-3.05443902 12.71664871 -3.37791671 15.12635374 -3 19 C-4.32 19 -5.64 19 -7 19 C-7.6340295 11.39164597 -4.85396045 5.82475253 0 0 Z " fill="#C9C1C1" transform="translate(39,42)"/>
<path d="M0 0 C0.495 0.433125 0.99 0.86625 1.5 1.3125 C4.83528397 3.56381668 8.20303142 4.671061 12 6 C10.375 7.5625 10.375 7.5625 8 9 C4.80751122 8.86969434 2.75411043 8.48652286 0.0625 6.75 C-1 5 -1 5 -0.6875 2.3125 C-0.460625 1.549375 -0.23375 0.78625 0 0 Z " fill="#B1AAAA" transform="translate(54,65)"/>
<path d="M0 0 C2 2 2 2 2.08984375 4.49609375 C1.9884087 6.45457047 1.8842487 8.41290799 1.77734375 10.37109375 C2.04020617 13.474715 2.70895601 14.03458662 5 16 C5.6875 18.6875 5.6875 18.6875 6 21 C4 20 4 20 2 17 C0.36504293 15.94895617 -1.29883624 14.94011682 -3 14 C-2.34 13.67 -1.68 13.34 -1 13 C-0.53045739 9.95418731 -0.53045739 9.95418731 -0.375 6.4375 C-0.30023438 5.23996094 -0.22546875 4.04242188 -0.1484375 2.80859375 C-0.09945312 1.88175781 -0.05046875 0.95492187 0 0 Z " fill="#B3ACAC" transform="translate(52,40)"/>
<path d="M0 0 C2.23851442 3.61606175 2.35513927 6.86675419 2.5625 11.0625 C2.80469755 16.12041668 2.80469755 16.12041668 4 21 C4.66 21.33 5.32 21.66 6 22 C4.68 22 3.36 22 2 22 C-1.52050781 6.92675781 -1.52050781 6.92675781 0 0 Z " fill="#424141" transform="translate(65,83)"/>
<path d="M0 0 C2 1 2 1 3.25 3.4375 C5.4564248 6.66833631 7.27731611 7.0900106 11 8 C10.34 8.66 9.68 9.32 9 10 C6.8359375 9.7578125 6.8359375 9.7578125 4.375 9.125 C3.55773438 8.92132813 2.74046875 8.71765625 1.8984375 8.5078125 C1.27195313 8.34023437 0.64546875 8.17265625 0 8 C0 5.36 0 2.72 0 0 Z " fill="#363535" transform="translate(51,66)"/>
<path d="M0 0 C0.99 0 1.98 0 3 0 C2.67 0.66 2.34 1.32 2 2 C1.67 2 1.34 2 1 2 C0.67 6.62 0.34 11.24 0 16 C1.32 15.67 2.64 15.34 4 15 C6.75 15.9375 6.75 15.9375 9 17 C9 17.33 9 17.66 9 18 C5.7 17.67 2.4 17.34 -1 17 C-1.02684679 14.35409986 -1.04676357 11.70846904 -1.0625 9.0625 C-1.07087891 8.30775391 -1.07925781 7.55300781 -1.08789062 6.77539062 C-1.09652441 4.85005687 -1.05224333 2.92464419 -1 1 C-0.67 0.67 -0.34 0.34 0 0 Z " fill="#CCC4C4" transform="translate(49,59)"/>
<path d="M0 0 C0.66 0.33 1.32 0.66 2 1 C0.49760034 4.61941735 -0.82145293 7.7321794 -3 11 C-3.33 9.68 -3.66 8.36 -4 7 C-4.66 7 -5.32 7 -6 7 C-4.60667426 3.63279613 -3.0210714 2.0140476 0 0 Z " fill="#B2ACAC" transform="translate(57,15)"/>
<path d="M0 0 C4.62 0 9.24 0 14 0 C14.33 0.66 14.66 1.32 15 2 C14.01 2.495 14.01 2.495 13 3 C13.33 3.66 13.66 4.32 14 5 C12.22739369 4.54857225 10.4569632 4.08859477 8.6875 3.625 C7.20830078 3.24214844 7.20830078 3.24214844 5.69921875 2.8515625 C3 2 3 2 0 0 Z " fill="#969090" transform="translate(48,76)"/>
<path d="M0 0 C0.33 0 0.66 0 1 0 C1.06058594 0.98742187 1.12117188 1.97484375 1.18359375 2.9921875 C1.26738281 4.27351563 1.35117188 5.55484375 1.4375 6.875 C1.51871094 8.15117188 1.59992188 9.42734375 1.68359375 10.7421875 C1.79206027 13.88300152 1.79206027 13.88300152 3 16 C2.34 16 1.68 16 1 16 C0.67 16.66 0.34 17.32 0 18 C-2 15 -2 15 -1.66015625 13.171875 C-1.44230469 12.45515625 -1.22445312 11.7384375 -1 11 C-0.78351622 9.08639029 -0.59743032 7.16916379 -0.4375 5.25 C-0.35371094 4.26515625 -0.26992187 3.2803125 -0.18359375 2.265625 C-0.12300781 1.51796875 -0.06242187 0.7703125 0 0 Z " fill="#A19B9B" transform="translate(69,86)"/>
<path d="M0 0 C2.7710688 2.34591852 3.52059284 4.14776201 4.1875 7.6875 C4.34605469 8.49574219 4.50460938 9.30398437 4.66796875 10.13671875 C4.77753906 10.75160156 4.88710938 11.36648437 5 12 C2.68468976 9.89860429 1.99261585 8.97692453 1 5.875 C0.67 4.92625 0.34 3.9775 0 3 C-0.99 2.67 -1.98 2.34 -3 2 C-2.01 2 -1.02 2 0 2 C0 1.34 0 0.68 0 0 Z " fill="#494747" transform="translate(52,56)"/>
<path d="M0 0 C0.33 0 0.66 0 1 0 C1.66 4.95 2.32 9.9 3 15 C2.34 15 1.68 15 1 15 C0.67 15.99 0.34 16.98 0 18 C0 12.06 0 6.12 0 0 Z " fill="#B6AFAF" transform="translate(64,90)"/>
<path d="M0 0 C0.99 0.495 0.99 0.495 2 1 C2.33 1.99 2.66 2.98 3 4 C3.66 4.33 4.32 4.66 5 5 C5.625 7.5625 5.625 7.5625 6 10 C4.68 9.67 3.36 9.34 2 9 C1.34 6.03 0.68 3.06 0 0 Z " fill="#C7C0C0" transform="translate(54,56)"/>
<path d="M0 0 C2.60018816 3.90028225 2.15085514 7.47434569 2 12 C-0.22050056 9.77949944 -0.57774742 9.0402186 -1 6 C-0.72949547 3.99053778 -0.40632091 1.98645776 0 0 Z " fill="#625F5F" transform="translate(65,83)"/>
<path d="M0 0 C0.33 0 0.66 0 1 0 C1.33 2.31 1.66 4.62 2 7 C0.68 7 -0.64 7 -2 7 C-2.125 4.625 -2.125 4.625 -2 2 C-1.34 1.34 -0.68 0.68 0 0 Z " fill="#E1D8D8" transform="translate(34,54)"/>
<path d="M0 0 C0.66 0.33 1.32 0.66 2 1 C1.67 2.65 1.34 4.3 1 6 C-0.32 6 -1.64 6 -3 6 C-1.125 1.125 -1.125 1.125 0 0 Z " fill="#CFC7C7" transform="translate(39,42)"/>
<path d="M0 0 C1.65 0 3.3 0 5 0 C4.67 0.99 4.34 1.98 4 3 C1.69 3.33 -0.62 3.66 -3 4 C-2.01 3.34 -1.02 2.68 0 2 C0 1.34 0 0.68 0 0 Z " fill="#DAD1D1" transform="translate(70,102)"/>
<path d="M0 0 C0.66 0 1.32 0 2 0 C2.33 1.65 2.66 3.3 3 5 C2.34 5 1.68 5 1 5 C1 6.65 1 8.3 1 10 C0.67 10 0.34 10 0 10 C0 6.7 0 3.4 0 0 Z " fill="#BEB6B6" transform="translate(61,98)"/>
</svg>
